<svg width="18" height="11" viewBox="0 0 18 11" fill="none" xmlns="https://www.w3.org/2000/svg">
<path fill-rule="evenodd" clip-rule="evenodd" d="M14.8456 0.933105H0.212871C0.0961602 0.933105 0 1.05286 0 1.20058V10.6656C0 10.8208 0.101225 10.9331 0.226093 10.9331H17.6558C17.7857 10.9331 17.8139 10.8529 17.7301 10.7539L15.0584 7.59977V1.18631C15.0584 1.04882 14.9631 0.933105 14.8456 0.933105ZM13.9473 2.04395L1.11151 2.04422V9.82165H15.4845L13.9473 8.00688V2.04395Z" fill="#D3D3D3"/>
<path d="M10.5563 5.45226H10.9119C11.0223 5.45226 11.1119 5.36272 11.1119 5.25226V4.54106C11.1119 4.43061 11.0223 4.34106 10.9119 4.34106H10.5563H3.8891H3.5335C3.42304 4.34106 3.3335 4.43061 3.3335 4.54106V5.25226C3.3335 5.36272 3.42304 5.45226 3.5335 5.45226H3.8891H10.5563Z" fill="#D3D3D3"/>
<path d="M10.4637 7.67468H10.9119C11.0223 7.67468 11.1119 7.58513 11.1119 7.47468V6.76348C11.1119 6.65302 11.0223 6.56348 10.9119 6.56348H10.4637H3.9817H3.5335C3.42304 6.56348 3.3335 6.65302 3.3335 6.76348V7.47468C3.3335 7.58513 3.42304 7.67468 3.5335 7.67468H3.9817H10.4637Z" fill="#D3D3D3"/>
</svg>
