<svg width="19" height="16" viewBox="0 0 19 16" fill="none" xmlns="http://www.w3.org/2000/svg">
<path d="M9.70175 0.652409C9.52735 0.568232 9.31835 0.586584 9.16226 0.700681L3.51615 4.82794H0.897983C0.402764 4.82794 0 5.21831 0 5.69803V10.1544C0 10.634 0.402764 11.0241 0.897983 11.0241H3.51615L9.16226 15.1512C9.25328 15.2178 9.36262 15.2519 9.47237 15.2519C9.55061 15.2519 9.62927 15.2346 9.70196 15.1994C9.87678 15.1151 9.98715 14.9423 9.98715 14.7532V4.83432C9.98715 4.55885 9.75673 4.33565 9.47237 4.33565C9.188 4.33565 8.95759 4.55885 8.95759 4.83432V13.7525L3.99881 10.1277C3.90945 10.0623 3.80052 10.027 3.68871 10.027H1.02956V5.8255H3.68871C3.80073 5.8255 3.90945 5.79019 3.99881 5.72476L8.95759 2.09977V2.83961C8.95759 3.11508 9.188 3.33829 9.47237 3.33829C9.75673 3.33829 9.98715 3.11508 9.98715 2.83961V1.09863C9.98715 0.909528 9.87657 0.736786 9.70175 0.652409ZM18.049 10.7026L15.1827 7.92593L18.0486 5.14969C18.2498 4.9548 18.2498 4.63904 18.0486 4.44456C17.8474 4.24967 17.5217 4.24967 17.3207 4.44456L14.4548 7.2208L11.5889 4.44456C11.3878 4.24967 11.062 4.24967 10.861 4.44456C10.6601 4.63944 10.6599 4.955 10.861 5.14969L13.7269 7.92613L10.861 10.7026C10.6599 10.8975 10.6599 11.2132 10.861 11.4077C10.9615 11.505 11.0933 11.5537 11.2251 11.5537C11.3569 11.5537 11.4885 11.505 11.5891 11.4077L14.455 8.63126L17.3213 11.4077C17.4218 11.505 17.5536 11.5537 17.6854 11.5537C17.8172 11.5537 17.9487 11.505 18.0494 11.4077C18.2502 11.213 18.2502 10.8975 18.049 10.7026Z" fill="white"/>
<rect x="2.6001" y="4.90015" width="0.89" height="5.25673" fill="white"/>
<rect x="8.95996" y="1.77051" width="1.03" height="5" fill="white"/>
</svg>
