<svg width="16" height="15" viewBox="0 0 16 15" fill="none" xmlns="http://www.w3.org/2000/svg">
<path d="M15.8967 0.40862C15.7463 0.245617 15.4872 0.230206 15.3176 0.375229L11.6413 3.51732V0.395184C11.6413 0.245222 11.5533 0.1083 11.414 0.0415186C11.2747 -0.0254606 11.1083 -0.0104446 10.9838 0.0796513L5.33188 4.1881H2.68919C2.25247 4.1881 1.89719 4.53031 1.89719 4.95115V9.36526C1.89719 9.7859 2.25247 10.1279 2.68919 10.1279H3.90705L0.137997 13.3494C-0.0314399 13.4943 -0.0470299 13.744 0.10333 13.9072C0.184561 13.9951 0.296973 14.0402 0.410409 14.0402C0.50723 14.0402 0.604257 14.0074 0.682411 13.9406L10.8207 5.27538V13.1274L7.1122 10.4318C6.93066 10.3004 6.67384 10.3352 6.53743 10.5092C6.40101 10.6835 6.43712 10.9315 6.61784 11.0629L10.9838 14.2362C11.0564 14.2889 11.1434 14.3158 11.231 14.3158C11.2934 14.3158 11.3559 14.3022 11.414 14.2743C11.5535 14.2075 11.6413 14.0706 11.6413 13.9206V4.57397L15.862 0.966384C16.0314 0.821559 16.047 0.57182 15.8967 0.40862ZM2.71771 9.3376V4.97842H5.46932C5.55855 4.97842 5.64511 4.95036 5.7165 4.89879L10.8207 1.18866V4.21892L4.83177 9.3376H2.71771Z" fill="white"/>
<rect x="4.21045" y="4.21045" width="0.842105" height="5.89474" fill="white"/>
<rect x="4.9397" y="9.854" width="0.8" height="4.95855" transform="rotate(-54.1017 4.9397 9.854)" fill="white"/>
</svg>
