<svg width="18" height="18" viewBox="0 0 18 18" fill="none" xmlns="http://www.w3.org/2000/svg">
<path fill-rule="evenodd" clip-rule="evenodd" d="M18 9C18 13.9706 13.9706 18 9 18C4.02944 18 0 13.9706 0 9C0 4.02944 4.02944 0 9 0C13.9706 0 18 4.02944 18 9ZM13.6841 7.6842C14.4104 7.6842 14.9998 8.27367 14.9998 8.99999C14.9998 9.53683 14.6735 9.99999 14.242 10.2105C14.263 10.3368 14.2735 10.4631 14.2735 10.6C14.2735 12.621 11.9262 14.2526 9.0209 14.2526C6.11564 14.2526 3.76827 12.621 3.76827 10.6C3.76827 10.4631 3.7788 10.3263 3.79985 10.2C3.33669 9.98946 3.0209 9.53683 3.0209 8.99999C3.0209 8.27367 3.61038 7.6842 4.33669 7.6842C4.68406 7.6842 5.01038 7.83156 5.24195 8.05262C6.14722 7.38946 7.39985 6.97893 8.79985 6.93683L9.46301 3.79999C9.48406 3.73683 9.51564 3.6842 9.56827 3.65262C9.6209 3.62104 9.68406 3.61051 9.74722 3.62104L11.9262 4.0842C12.0735 3.76841 12.3893 3.55788 12.7577 3.55788C13.2735 3.55788 13.6946 3.97893 13.6946 4.49472C13.6946 5.01051 13.2735 5.43156 12.7577 5.43156C12.2525 5.43156 11.842 5.03156 11.8209 4.53683L9.87353 4.1263L9.27353 6.93683C10.642 6.98946 11.8841 7.41051 12.7788 8.05262C13.0104 7.82104 13.3262 7.6842 13.6841 7.6842ZM6.93669 8.99999C6.4209 8.99999 5.99985 9.42104 5.99985 9.93683C5.99985 10.4526 6.4209 10.8737 6.93669 10.8737C7.45248 10.8737 7.87353 10.4526 7.87353 9.93683C7.87353 9.42104 7.45248 8.99999 6.93669 8.99999ZM9.01038 13.0947C9.36827 13.0947 10.5893 13.0526 11.2314 12.4105C11.3262 12.3158 11.3262 12.1684 11.2525 12.0631C11.1577 11.9684 10.9998 11.9684 10.9051 12.0631C10.4946 12.4631 9.64196 12.6105 9.0209 12.6105C8.39985 12.6105 7.53669 12.4631 7.13669 12.0631C7.04195 11.9684 6.88406 11.9684 6.78932 12.0631C6.69459 12.1579 6.69459 12.3158 6.78932 12.4105C7.4209 13.0421 8.65248 13.0947 9.01038 13.0947ZM10.1262 9.93683C10.1262 10.4526 10.5472 10.8737 11.063 10.8737C11.5788 10.8737 11.9998 10.4526 11.9998 9.93683C11.9998 9.42104 11.5788 8.99999 11.063 8.99999C10.5472 8.99999 10.1262 9.42104 10.1262 9.93683Z" fill="#D3D3D3"/>
</svg>
