<svg width="41" height="47" viewBox="0 0 41 47" fill="none" xmlns="http://www.w3.org/2000/svg">
<path d="M3.93826 15.2853C1.76814 18.4838 0.500244 22.3441 0.500244 26.5005C0.500244 37.5462 9.45455 46.5005 20.5002 46.5005C31.5459 46.5005 40.5002 37.5462 40.5002 26.5005C40.5002 15.4548 31.5459 6.50053 20.5002 6.50053C20.333 6.50053 20.1663 6.50258 20 6.50666V10.5082C20.1661 10.5031 20.3329 10.5005 20.5002 10.5005C29.3368 10.5005 36.5002 17.664 36.5002 26.5005C36.5002 35.3371 29.3368 42.5005 20.5002 42.5005C11.6637 42.5005 4.50024 35.3371 4.50024 26.5005C4.50024 23.2699 5.45771 20.2629 7.10436 17.7479L3.93826 15.2853Z" fill="white"/>
<path d="M11.5002 8.50053L20.5002 0.706299V16.2948L11.5002 8.50053Z" fill="white"/>
</svg>
