<svg width="18" height="18" viewBox="0 0 18 18" fill="none" xmlns="http://www.w3.org/2000/svg">
<path d="M0 9V9C0 13.9706 4.02944 18 9 18V18V18C13.9706 18 18 13.9706 18 9V9V9C18 4.02944 13.9706 -9.83477e-07 9 -9.83477e-07V-9.83477e-07V-9.83477e-07C4.02944 -9.83477e-07 0 4.02944 0 9V9ZM13.1625 5.17125C14.4525 5.50875 15.5138 6.51375 15.9113 7.78125C16.2713 8.9325 16.0763 10.0725 15.3188 11.235C15.135 11.5162 14.5575 12.0937 14.2838 12.27C13.4138 12.84 12.435 13.05 11.4563 12.8812C10.9013 12.7837 10.1663 12.4612 9.7875 12.15V12.15C9.71334 12.0907 9.69709 11.9844 9.75015 11.9056L10.1438 11.3212C10.4138 10.9275 10.6425 10.5825 10.6575 10.56C10.6763 10.5337 10.7213 10.5562 10.7888 10.62C11.1075 10.9162 11.61 11.1 12.1088 11.1C12.6975 11.1 13.1625 10.9125 13.5563 10.5187C13.95 10.125 14.1375 9.66 14.1375 9.075C14.1375 7.89375 13.2975 7.005 12.2288 7.0575C11.805 7.07625 11.5125 7.22625 11.1225 7.62375C10.7438 8.00625 10.5413 8.29125 9.825 9.45C9.51375 9.95625 9.12 10.5637 8.95125 10.8C8.59875 11.2912 8.01375 11.9175 7.65375 12.1875C7.005 12.675 6.29625 12.8962 5.53125 12.8512C3.885 12.75 2.5275 11.655 2.03625 10.0312C1.9425 9.71625 1.935 9.64875 1.935 9C1.935 8.35125 1.9425 8.28375 2.04 7.96875C2.3775 6.85875 3.12 5.98875 4.14 5.50875C5.13375 5.04375 6.2475 5.0325 7.27875 5.475C7.75875 5.6775 8.31375 6.06375 8.27625 6.165C8.25375 6.2175 7.36875 7.56375 7.3125 7.62375C7.2975 7.63875 7.21125 7.58625 7.12125 7.5C6.735 7.1475 6.16875 6.9525 5.625 6.98625C4.45125 7.065 3.69 7.98375 3.855 9.12C4.0425 10.41 5.415 11.22 6.51375 10.6837C6.97125 10.4625 7.54125 9.825 8.1225 8.8875C8.2725 8.65125 8.56875 8.1675 8.78625 7.81875C9.825 6.1425 10.5975 5.39625 11.565 5.13375C11.9325 5.03625 12.7013 5.05125 13.1625 5.17125Z" fill="#C4C4C4"/>
</svg>
