<svg width="150" height="156" viewBox="0 0 150 156" fill="none" xmlns="https://www.w3.org/2000/svg">
<path fill-rule="evenodd" clip-rule="evenodd" d="M137.435 136.742C109.948 161.104 52.6178 164.247 20.4188 135.17C36.1257 124.954 56.5445 121.81 69.8953 121.81C77.7487 77.8014 55.7592 58.9404 36.911 55.0111C45.5497 59.7263 58.1152 67.585 62.0419 87.2318C12.5654 91.1612 8.63874 64.4415 0 40.0795C33.7696 33.0066 58.9005 39.2936 73.822 64.4415C77.7487 6.28698 117.016 1.57174 150 0C144.503 25.9338 146.073 67.585 93.4555 73.872C94.2408 55.7969 102.094 39.2936 121.728 24.362C82.4607 35.3643 80.1047 91.1612 86.3874 121.81C95.8115 121.81 127.225 128.097 137.435 136.742Z" fill="white"/>
</svg>
