<svg width="99" height="98" viewBox="0 0 99 98" fill="none" xmlns="http://www.w3.org/2000/svg">
<path d="M87.8279 37.4143C87.2945 37.5572 86.7461 37.2406 86.6032 36.7071L83.2466 24.1801L61.155 62.4506C60.8789 62.929 60.2673 63.0929 59.789 62.8167L38.2868 50.4041L11.4071 96.9583C11.131 97.4366 10.5195 97.6004 10.0412 97.3243L1.08762 92.1557C0.60929 91.8795 0.445391 91.2679 0.721544 90.7896L33.2702 34.4137C33.5463 33.9354 34.1579 33.7716 34.6362 34.0478L56.137 46.4628L73.0925 17.0937L59.1174 20.8383C58.584 20.9812 58.0356 20.6646 57.8927 20.1312L55.2165 10.1435C55.0736 9.61002 55.3902 9.06168 55.9236 8.91874L88.5545 0.175314C89.088 0.0323718 89.6363 0.348954 89.7793 0.88242L98.5227 33.5133C98.6656 34.0468 98.349 34.5951 97.8156 34.7381L87.8279 37.4143Z" fill="white"/>
</svg>
