<svg width="16" height="16" viewBox="0 0 16 16" fill="none" xmlns="http://www.w3.org/2000/svg">
<path d="M10.8135 1.85286C8.23354 -0.722572 3.98112 -0.616002 1.54353 2.19034C-0.520404 4.55263 -0.520404 8.15824 1.57912 10.5028C3.7854 13.0072 7.46846 13.3269 10.0484 11.4441L14.3186 15.7069C14.71 16.0977 15.3328 16.0977 15.7064 15.7069C16.0979 15.3162 16.0979 14.6945 15.7064 14.3215L11.4362 10.0587C13.251 7.57211 13.0375 4.09083 10.8135 1.85286ZM9.74591 9.73903C7.8599 11.6218 4.79957 11.6218 2.89577 9.73903C1.00976 7.85629 1.00976 4.80129 2.89577 2.9008C4.78178 1.01807 7.8421 1.01807 9.74591 2.9008C11.6319 4.80129 11.6319 7.85629 9.74591 9.73903Z" fill="black"/>
</svg>
