<svg width="214" height="265" viewBox="0 0 214 265" fill="none" xmlns="https://www.w3.org/2000/svg">
<path fill-rule="evenodd" clip-rule="evenodd" d="M59 164C60.1046 164 61 164.895 61 166V263C61 264.105 60.1046 265 59 265H2C0.895432 265 0 264.105 0 263V166C0 164.895 0.89543 164 2 164H59Z" fill="white"/>
<path fill-rule="evenodd" clip-rule="evenodd" d="M139 54C137.895 54 137 54.8954 137 56V263C137 264.105 136.105 265 135 265H78C76.8954 265 76 264.105 76 263V56C76 54.8954 75.1046 54 74 54H61.5775C59.8326 54 58.9245 51.9216 60.11 50.6412L105.518 1.60101C106.315 0.740228 107.678 0.747086 108.466 1.61584L152.966 50.656C154.132 51.9412 153.22 54 151.485 54H139Z" fill="white"/>
<path fill-rule="evenodd" clip-rule="evenodd" d="M212 102C213.105 102 214 102.895 214 104V263C214 264.105 213.105 265 212 265H156C154.895 265 154 264.105 154 263V104C154 102.895 154.895 102 156 102H212Z" fill="white"/>
</svg>
