<svg width="16" height="10" viewBox="0 0 16 10" fill="none" xmlns="http://www.w3.org/2000/svg">
<path fill-rule="evenodd" clip-rule="evenodd" d="M13.36 0.933105H0.191569C0.0865373 0.933105 0 1.04087 0 1.17381V9.69169C0 9.83133 0.0910956 9.9324 0.203468 9.9324H15.889C16.0058 9.9324 16.0313 9.86019 15.9558 9.77112L13.5515 6.93263V1.16097C13.5515 1.03724 13.4658 0.933105 13.36 0.933105ZM12.5515 1.93296L1.00019 1.93321V8.93234H13.9349L12.5515 7.29918V1.93296Z" fill="#D3D3D3"/>
<path d="M9.5 5H9.8C9.91046 5 10 4.91046 10 4.8V4.2C10 4.08954 9.91046 4 9.8 4H9.5H3.5H3.2C3.08954 4 3 4.08954 3 4.2V4.8C3 4.91046 3.08954 5 3.2 5H3.5H9.5Z" fill="#D3D3D3"/>
<path d="M9.41667 7H9.8C9.91046 7 10 6.91046 10 6.8V6.2C10 6.08954 9.91046 6 9.8 6H9.41667H3.58333H3.2C3.08954 6 3 6.08954 3 6.2V6.8C3 6.91046 3.08954 7 3.2 7H3.58333H9.41667Z" fill="#D3D3D3"/>
</svg>
