<svg width="16" height="18" viewBox="0 0 16 18" fill="none" xmlns="https://www.w3.org/2000/svg">
<path fill-rule="evenodd" clip-rule="evenodd" d="M14.2303 11.7625C14.2303 13.4883 13.6175 14.9593 12.3916 16.1756C11.1658 17.3919 9.68908 18.0001 7.96134 18.0001H5.93753C5.36165 18.0001 4.86391 17.7946 4.44435 17.3837C4.02475 16.9728 3.81497 16.4797 3.81497 15.9044C3.81497 15.3291 4.02064 14.836 4.43199 14.4251C4.84334 14.0142 5.33697 13.8088 5.91285 13.8088H7.93666C8.51254 13.8088 9.00207 13.6074 9.40516 13.2047C9.80833 12.8021 10.0099 12.3214 10.0099 11.7625V7.54663C10.0099 6.97136 9.80833 6.48238 9.40516 6.07969C9.00207 5.677 8.52079 5.47567 7.96134 5.47567C7.38546 5.47567 6.89186 5.6811 6.48052 6.09201C6.06917 6.50295 5.86349 6.98776 5.86349 7.54663C5.86349 7.9575 6.04446 8.4177 6.40645 8.92728C6.76844 9.43673 6.94943 9.89703 6.94943 10.3079C6.94943 10.8832 6.74376 11.3763 6.33241 11.7871C5.92106 12.198 5.42747 12.4035 4.85155 12.4035C3.91368 12.4035 3.1239 11.8035 2.4822 10.6037C1.93922 9.60109 1.66772 8.58206 1.66772 7.54663C1.66772 5.82082 2.28064 4.34567 3.50644 3.12116C4.73227 1.89669 6.20902 1.28442 7.93666 1.28442C9.6644 1.28442 11.1452 1.89669 12.3792 3.12116C13.6132 4.34567 14.2303 5.82082 14.2303 7.54663V11.7625Z" fill="#D3D3D3"/>
<path fill-rule="evenodd" clip-rule="evenodd" d="M0.472351 2.69941C0.144118 1.60448 0.00585811 0.460913 0.00585811 0.460913C-0.0386253 0.153088 0.175124 -0.0489128 0.480657 0.0103079C0.480657 0.0103079 1.58866 0.215486 2.43777 0.426958C3.28688 0.638439 4.13594 0.952225 4.13594 0.952225C4.13594 0.952225 3.20757 1.49229 2.41382 2.37581C1.62009 3.25934 1.21145 4.50428 1.21145 4.50428C1.21145 4.50428 0.800597 3.79435 0.472351 2.69941Z" fill="#D3D3D3"/>
<path fill-rule="evenodd" clip-rule="evenodd" d="M15.5271 2.69941C15.8554 1.60448 15.9937 0.460913 15.9937 0.460913C16.0381 0.153088 15.8244 -0.0489128 15.5188 0.0103079C15.5188 0.0103079 14.4109 0.215486 13.5617 0.426958C12.7126 0.638439 11.8635 0.952225 11.8635 0.952225C11.8635 0.952225 12.7919 1.49229 13.5857 2.37581C14.3794 3.25934 14.788 4.50428 14.788 4.50428C14.788 4.50428 15.1989 3.79435 15.5271 2.69941Z" fill="#D3D3D3"/>
</svg>
