<svg width="14" height="13" viewBox="0 0 14 13" fill="none" xmlns="https://www.w3.org/2000/svg">
<path d="M6.1355 11.6454V12.2157C6.1355 12.3261 6.22504 12.4157 6.3355 12.4157H7.64992C7.76038 12.4157 7.84992 12.3261 7.84992 12.2157V11.6454V2.40234V1.63208C7.55965 1.63208 7.26937 1.63208 7.01238 1.63208C6.51046 1.63208 6.1355 1.63208 6.1355 1.63208V2.40234V11.6454Z" fill="#D3D3D3"/>
<path d="M7.5704 2.29581H6.41492L11.7964 7.44256C11.8789 7.52146 12.0105 7.51542 12.0855 7.42932L12.9781 6.40365C13.0482 6.32308 13.0426 6.20164 12.9654 6.12782L7.5704 0.968069L7.13089 0.547733C7.05357 0.473784 6.93174 0.473784 6.85442 0.547733L6.41492 0.968069L1.01988 6.12782C0.942695 6.20164 0.937132 6.32308 1.00725 6.40365L1.89984 7.42932C1.97478 7.51542 2.10646 7.52146 2.18895 7.44256L7.5704 2.29581Z" fill="#D3D3D3"/>
</svg>
