<svg width="1317" height="420" viewBox="0 0 1317 420" fill="none" xmlns="https://www.w3.org/2000/svg">
<path fill-rule="evenodd" clip-rule="evenodd" d="M1239.56 172.153C1228.13 172.153 1219.22 175.877 1212.82 183.311C1206.42 190.753 1202.65 200.308 1201.51 211.981H1272.47C1272.47 193.902 1266.65 181.766 1254.99 175.587C1250.87 173.3 1245.73 172.153 1239.56 172.153ZM1305.9 189.664C1308.75 199.278 1310.18 208.09 1310.18 216.1C1310.18 224.116 1309.72 231.326 1308.81 237.732H1201.17C1201.62 251.239 1204.94 262.227 1211.11 270.692C1217.28 279.164 1226.65 283.395 1239.22 283.395C1255.9 283.395 1265.84 276.073 1269.04 261.423H1309.84C1306.87 278.132 1299.21 291.293 1286.87 300.906C1273.84 310.981 1257.96 316.014 1239.22 316.014C1217.28 316.014 1198.88 308.003 1184.03 291.98C1168.71 275.273 1161.06 253.868 1161.06 227.774C1161.06 200.994 1168.71 179.48 1184.03 163.227C1198.43 147.663 1216.82 139.879 1239.22 139.879C1262.3 139.879 1280.13 148.006 1292.7 164.256C1298.64 171.584 1303.03 180.049 1305.9 189.664Z" fill="#FFCF20"/>
<path fill-rule="evenodd" clip-rule="evenodd" d="M1239.56 172.153C1228.13 172.153 1219.22 175.877 1212.82 183.311C1206.42 190.753 1202.65 200.308 1201.51 211.981H1272.47C1272.47 193.902 1266.65 181.766 1254.99 175.587C1250.87 173.3 1245.73 172.153 1239.56 172.153ZM1305.9 189.664C1308.75 199.278 1310.18 208.09 1310.18 216.1C1310.18 224.116 1309.72 231.326 1308.81 237.732H1201.17C1201.62 251.239 1204.94 262.227 1211.11 270.692C1217.28 279.164 1226.65 283.395 1239.22 283.395C1255.9 283.395 1265.84 276.073 1269.04 261.423H1309.84C1306.87 278.132 1299.21 291.293 1286.87 300.906C1273.84 310.981 1257.96 316.014 1239.22 316.014C1217.28 316.014 1198.88 308.003 1184.03 291.98C1168.71 275.273 1161.06 253.868 1161.06 227.774C1161.06 200.994 1168.71 179.48 1184.03 163.227C1198.43 147.663 1216.82 139.879 1239.22 139.879C1262.3 139.879 1280.13 148.006 1292.7 164.256C1298.64 171.584 1303.03 180.049 1305.9 189.664Z" stroke="#FFCF20"/>
<path fill-rule="evenodd" clip-rule="evenodd" d="M1090.44 311.206H1130.89V75.6736H1090.44V311.206Z" fill="#FFCF20"/>
<path fill-rule="evenodd" clip-rule="evenodd" d="M1090.44 311.206H1130.89V75.6736H1090.44V311.206Z" stroke="#FFCF20"/>
<path fill-rule="evenodd" clip-rule="evenodd" d="M939.41 217.474V239.448C939.864 251.122 944.093 260.735 952.094 268.289C959.635 275.617 968.832 279.277 979.69 279.277C990.541 279.277 999.857 274.528 1007.63 265.026C1015.39 255.531 1019.28 243 1019.28 227.431C1019.28 211.867 1015.45 199.449 1007.8 190.178C1000.14 180.908 990.6 176.274 979.177 176.274C967.746 176.274 958.265 180.05 950.723 187.604C943.182 195.157 939.41 205.113 939.41 217.474ZM1038.99 163.913C1053.05 179.937 1060.08 200.994 1060.08 227.086C1060.08 253.183 1052.65 274.698 1037.8 291.637C1023.4 307.892 1005.45 316.014 983.976 316.014C973.692 316.014 964.264 313.267 955.695 307.773C947.124 302.281 940.321 293.814 935.296 282.366L925.354 311.207H898.959V75.6736H939.41V165.286C949.919 148.349 965.635 139.879 986.546 139.879C1007.46 139.879 1024.94 147.893 1038.99 163.913Z" fill="#FFCF20"/>
<path fill-rule="evenodd" clip-rule="evenodd" d="M939.41 217.474V239.448C939.864 251.122 944.093 260.735 952.094 268.289C959.635 275.617 968.832 279.277 979.69 279.277C990.541 279.277 999.857 274.528 1007.63 265.026C1015.39 255.531 1019.28 243 1019.28 227.431C1019.28 211.867 1015.45 199.449 1007.8 190.178C1000.14 180.908 990.6 176.274 979.177 176.274C967.746 176.274 958.265 180.05 950.723 187.604C943.182 195.157 939.41 205.113 939.41 217.474ZM1038.99 163.913C1053.05 179.937 1060.08 200.994 1060.08 227.086C1060.08 253.183 1052.65 274.698 1037.8 291.637C1023.4 307.892 1005.45 316.014 983.976 316.014C973.692 316.014 964.264 313.267 955.695 307.773C947.124 302.281 940.321 293.814 935.296 282.366L925.354 311.207H898.959V75.6736H939.41V165.286C949.919 148.349 965.635 139.879 986.546 139.879C1007.46 139.879 1024.94 147.893 1038.99 163.913Z" stroke="#FFCF20"/>
<path fill-rule="evenodd" clip-rule="evenodd" d="M742.448 175.93C753.186 151.896 772.042 139.879 799.011 139.879C818.894 139.879 834.32 146.634 845.288 160.137C855.798 172.957 861.058 190.812 861.058 213.697V311.207H820.265V213.697C820.265 201.337 817.292 192.013 811.351 185.715C805.405 179.422 797.065 176.273 786.325 176.273C775.584 176.273 766.787 180.968 759.931 190.35C753.075 199.738 749.417 213.928 748.96 232.926V311.207H708.511V213.697C708.511 201.337 705.538 192.013 699.597 185.715C693.651 179.422 685.311 176.273 674.571 176.273C663.826 176.273 654.629 181.08 646.975 190.693C639.315 200.307 635.262 214.727 634.807 233.954V311.207H594.355V144.343H629.666L634.12 173.184C645.093 150.984 662.687 139.879 686.912 139.879C700.851 139.879 712.453 143.087 721.708 149.493C730.965 155.904 737.872 164.717 742.448 175.93Z" fill="#FFCF20"/>
<path fill-rule="evenodd" clip-rule="evenodd" d="M742.448 175.93C753.186 151.896 772.042 139.879 799.011 139.879C818.894 139.879 834.32 146.634 845.288 160.137C855.798 172.957 861.058 190.812 861.058 213.697V311.207H820.265V213.697C820.265 201.337 817.292 192.013 811.351 185.715C805.405 179.422 797.065 176.273 786.325 176.273C775.584 176.273 766.787 180.968 759.931 190.35C753.075 199.738 749.417 213.928 748.96 232.926V311.207H708.511V213.697C708.511 201.337 705.538 192.013 699.597 185.715C693.651 179.422 685.311 176.273 674.571 176.273C663.826 176.273 654.629 181.08 646.975 190.693C639.315 200.307 635.262 214.727 634.807 233.954V311.207H594.355V144.343H629.666L634.12 173.184C645.093 150.984 662.687 139.879 686.912 139.879C700.851 139.879 712.453 143.087 721.708 149.493C730.965 155.904 737.872 164.717 742.448 175.93Z" stroke="#FFCF20"/>
<path fill-rule="evenodd" clip-rule="evenodd" d="M515.586 280.993C505.072 303.198 488.161 314.298 464.85 314.298C435.37 314.298 415.943 302.742 406.574 279.62C403.147 271.609 401.433 261.883 401.433 250.435V144H441.883V246.316C441.883 257.302 444.508 265.488 449.767 270.864C455.022 276.245 461.476 278.933 469.136 278.933C476.79 278.933 483.246 277.849 488.504 275.671C493.759 273.498 498.328 270.237 502.217 265.886C510.669 256.048 515.125 242.882 515.586 226.403V144H556.038V311.207H515.586V280.993Z" fill="#FFCF20"/>
<path fill-rule="evenodd" clip-rule="evenodd" d="M515.586 280.993C505.072 303.198 488.161 314.298 464.85 314.298C435.37 314.298 415.943 302.742 406.574 279.62C403.147 271.609 401.433 261.883 401.433 250.435V144H441.883V246.316C441.883 257.302 444.508 265.488 449.767 270.864C455.022 276.245 461.476 278.933 469.136 278.933C476.79 278.933 483.246 277.849 488.504 275.671C493.759 273.498 498.328 270.237 502.217 265.886C510.669 256.048 515.125 242.882 515.586 226.403V144H556.038V311.207H515.586V280.993Z" stroke="#FFCF20"/>
<path fill-rule="evenodd" clip-rule="evenodd" d="M182.245 234.006C181.625 232.933 181.003 231.864 180.385 230.789C170.375 213.399 160.362 196.008 150.357 178.616C136.734 154.939 123.119 131.257 109.498 107.58C107.997 104.972 107.968 104.947 105.881 106.152C87.155 116.969 68.4339 127.794 49.7173 138.63C47.6297 139.838 47.6493 139.875 48.7896 141.947C48.9918 142.314 49.212 142.674 49.4217 143.038C73.0467 184.109 96.6672 225.184 120.303 266.252C127.534 278.817 134.803 291.36 142.056 303.912C142.41 304.667 142.714 305.451 143.127 306.172C155.743 328.119 168.367 350.062 181.003 371.999C181.353 372.607 181.521 373.402 182.414 373.68C183.381 373.181 183.699 372.136 184.206 371.266C186.637 367.09 189.037 362.895 191.446 358.707C229.486 292.594 267.525 226.482 305.562 160.37C308.968 154.451 312.38 148.534 315.744 142.592C317.009 140.356 316.943 140.284 314.741 138.911C314.385 138.687 314.017 138.486 313.653 138.276C295.747 127.927 277.842 117.58 259.935 107.234C259.389 106.918 258.813 106.654 258.292 106.302C257.03 105.447 256.161 105.814 255.518 107.099C255.285 107.568 254.99 108.007 254.729 108.462C233.672 145.073 212.631 181.693 191.543 218.286C188.503 223.56 185.68 228.966 182.245 234.006ZM1.58034 210.504C1.58034 176.856 1.61805 143.207 1.51548 109.561C1.50643 106.551 2.42959 104.873 5.06029 103.359C44.0999 80.8781 83.0762 58.2858 122.068 35.7221C141.155 24.6752 160.266 13.6706 179.305 2.54361C181.581 1.2126 183.337 1.14311 185.631 2.48016C208.673 15.9156 231.771 29.2544 254.856 42.6174C285.483 60.3465 316.113 78.0726 346.742 95.8017C351.651 98.642 356.527 101.54 361.479 104.3C363.068 105.185 363.792 106.303 363.617 108.089C363.544 108.819 363.606 109.561 363.606 110.296C363.608 177.067 363.606 243.837 363.606 310.608C363.606 311.343 363.54 312.087 363.617 312.815C363.819 314.75 362.923 315.858 361.267 316.811C336.151 331.277 311.065 345.792 285.978 360.308C255.802 377.768 225.632 395.241 195.459 412.707C192.004 414.706 188.503 416.626 185.109 418.721C183.293 419.842 181.813 419.871 179.902 418.758C154.582 404.017 129.218 389.353 103.858 374.68C71.7721 356.116 39.6606 337.593 7.60501 318.976C0.210687 314.681 1.62258 316.962 1.60598 308.609C1.54263 275.906 1.58034 243.205 1.58034 210.504Z" fill="#FFCF20"/>
</svg>
