<svg width="20" height="14" viewBox="0 0 20 14" fill="none" xmlns="https://www.w3.org/2000/svg">
<path fill-rule="evenodd" clip-rule="evenodd" d="M17.8212 0.428235C18.6776 0.658824 19.3529 1.33412 19.5835 2.19059C20.0118 3.75529 19.9953 7.01647 19.9953 7.01647C19.9953 7.01647 19.9953 10.2612 19.5835 11.8259C19.3529 12.6824 18.6776 13.3576 17.8212 13.5882C16.2565 14 9.99765 14 9.99765 14C9.99765 14 3.75529 14 2.17412 13.5718C1.31765 13.3412 0.642353 12.6659 0.411765 11.8094C0 10.2612 0 7 0 7C0 7 0 3.75529 0.411765 2.19059C0.642353 1.33412 1.33412 0.642353 2.17412 0.411765C3.73882 0 9.99765 0 9.99765 0C9.99765 0 16.2565 0 17.8212 0.428235ZM13.2096 7.00009L8.00488 9.99774V4.00244L13.2096 7.00009Z" fill="#D3D3D3"/>
</svg>
